<?xml version="1.0" encoding="utf-8"?>
<!-- Generator: Adobe Illustrator 25.0.1, SVG Export Plug-In . SVG Version: 6.00 Build 0)  -->
<svg version="1.1" id="Calque_1" xmlns="http://www.w3.org/2000/svg" xmlns:xlink="http://www.w3.org/1999/xlink" x="0px" y="0px"
	 viewBox="0 0 910.7 753.1" style="enable-background:new 0 0 910.7 753.1;" xml:space="preserve">
<g>
	<path d="M910.7,363.3c0,154-124.8,278.8-278.8,278.8S353.1,517.3,353.1,363.3S477.9,84.5,631.9,84.5
		C786,84.5,910.7,209.4,910.7,363.3"/>
</g>
<g>
	<g>
		<path d="M0,376.4C0,163.9,158.7,0,372.3,0c215.8,0,373.4,166,373.4,376.4c0,212.7-158.7,376.6-373.4,376.6S0,591.3,0,376.4z
			 M679.3,376.4c0-179.5-129.7-316.3-307-316.3c-176.4,0-307,136.9-307,316.3c0,182.5,130.6,316.3,307,316.3
			C549.8,692.9,679.3,559.1,679.3,376.4z"/>
	</g>
</g>
</svg>
